<?xml version="1.0" encoding="utf-8"?>
<!-- Generator: Adobe Illustrator 25.4.1, SVG Export Plug-In . SVG Version: 6.00 Build 0)  -->
<svg version="1.1" id="图层_1" xmlns="http://www.w3.org/2000/svg" xmlns:xlink="http://www.w3.org/1999/xlink" x="0px" y="0px"
	 viewBox="0 0 95.7 136.3" style="enable-background:new 0 0 95.7 136.3;" xml:space="preserve">
<style type="text/css">
	.st0{fill:#00BFF5;}
	.st1{fill:url(#SVGID_1_);}
	.st2{fill:#515150;}
	.st3{fill:#9D9D9E;}
	.st4{fill:#E0E0E0;}
	.st5{fill:#FFFFFF;}
	.st6{fill:#B8B8B8;}
	.st7{fill:#E1E1E1;}
	.st8{display:none;}
	.st9{display:inline;}
	.st10{fill:#636160;}
	.st11{fill:none;stroke:#CACDCC;stroke-width:1.0602;stroke-miterlimit:10;}
	.st12{fill:#4B4B4C;}
	.st13{fill:#535354;}
</style>
<g>
	<polygon class="st0" points="91.7,16.6 91.7,16.6 75.8,16.6 75.8,4.6 71.8,0 71.8,0 30.8,0.1 30.8,16.6 11,16.6 11,116.2 15,121.2 
		41.4,121.2 41.4,123.3 45.4,123.3 45.4,123.3 41.4,123.3 45.4,128.3 66.5,128.3 66.5,121.2 95.7,121.2 95.7,21.6 	"/>
	<g>
		<linearGradient id="SVGID_1_" gradientUnits="userSpaceOnUse" x1="9.8516" y1="20.6863" x2="75.5567" y2="134.4908">
			<stop  offset="0" style="stop-color:#FFFFFF"/>
			<stop  offset="1" style="stop-color:#000000"/>
		</linearGradient>
		<polygon class="st1" points="80.7,24.6 80.6,29.6 64.8,29.6 64.8,12.6 60.8,8 23.8,12.6 23.8,29.6 4,29.6 4,124.2 0,124.2 
			4,129.2 34.4,129.2 34.4,131.3 30.4,131.3 34.4,136.3 55.5,136.3 55.5,129.2 84.7,129.2 84.7,29.6 		"/>
		<g>
			<rect x="0" y="24.6" class="st2" width="80.7" height="99.6"/>
			<g>
				<rect x="18.2" y="103.1" class="st3" width="6.2" height="15.9"/>
				
					<rect x="15.6" y="105.7" transform="matrix(-1.836970e-16 1 -1 -1.836970e-16 132.754 90.1592)" class="st4" width="11.5" height="11.5"/>
			</g>
			<g>
				<rect x="57.2" y="103.1" class="st3" width="6.2" height="15.9"/>
				
					<rect x="54.6" y="105.7" transform="matrix(-1.836970e-16 1 -1 -1.836970e-16 171.7791 51.1341)" class="st4" width="11.5" height="11.5"/>
			</g>
			<g>
				<circle class="st4" cx="5.3" cy="45.8" r="1.8"/>
				<circle class="st4" cx="5.3" cy="37.9" r="1.8"/>
				<circle class="st4" cx="5.3" cy="29.9" r="1.8"/>
				<circle class="st4" cx="5.3" cy="69.6" r="1.8"/>
				<circle class="st4" cx="5.3" cy="61.7" r="1.8"/>
				<circle class="st4" cx="5.3" cy="53.7" r="1.8"/>
				<circle class="st4" cx="5.3" cy="93.4" r="1.8"/>
				<circle class="st4" cx="5.3" cy="85.5" r="1.8"/>
				<circle class="st4" cx="5.3" cy="77.5" r="1.8"/>
				<circle class="st4" cx="5.3" cy="117.2" r="1.8"/>
				<circle class="st4" cx="5.3" cy="109.3" r="1.8"/>
				<circle class="st4" cx="5.3" cy="101.3" r="1.8"/>
			</g>
			<g>
				<circle class="st4" cx="76.2" cy="45.8" r="1.8"/>
				<circle class="st4" cx="76.2" cy="37.9" r="1.8"/>
				<circle class="st4" cx="76.2" cy="29.9" r="1.8"/>
				<circle class="st4" cx="76.2" cy="69.6" r="1.8"/>
				<circle class="st4" cx="76.2" cy="61.7" r="1.8"/>
				<circle class="st4" cx="76.2" cy="53.7" r="1.8"/>
				<circle class="st4" cx="76.2" cy="93.4" r="1.8"/>
				<circle class="st4" cx="76.2" cy="85.5" r="1.8"/>
				<circle class="st4" cx="76.2" cy="77.5" r="1.8"/>
				<circle class="st4" cx="76.2" cy="117.2" r="1.8"/>
				<circle class="st4" cx="76.2" cy="109.3" r="1.8"/>
				<circle class="st4" cx="76.2" cy="101.3" r="1.8"/>
			</g>
			<g>
				<rect x="31.6" y="84.1" class="st4" width="3.9" height="2.6"/>
				<rect x="31.6" y="90.6" class="st4" width="3.9" height="2.6"/>
				<rect x="31.6" y="97.1" class="st4" width="3.9" height="2.6"/>
				<g>
					<rect x="46.4" y="87.4" class="st4" width="4.4" height="8.8"/>
					
						<rect x="30.8" y="86" transform="matrix(-1.836970e-16 1 -1 -1.836970e-16 132.7459 50.7899)" class="st3" width="20.3" height="11.5"/>
				</g>
			</g>
			<polygon class="st4" points="48.1,119.8 48.1,122.2 33.8,122.2 33.8,119.8 30.4,119.8 30.4,131.3 51.5,131.3 51.5,119.8 			"/>
		</g>
		<g>
			<g>
				<g>
					<polygon class="st5" points="60.8,52.2 19.8,52.2 19.8,8.1 60.8,8 					"/>
				</g>
				<polygon class="st6" points="60.8,25 19.8,24.6 19.8,8.1 60.8,8 				"/>
			</g>
			<polygon class="st7" points="44.6,11.1 44.6,16.3 41.6,16.3 41.6,11 34.3,11 34.2,16.2 31,16.2 31,11.1 23.7,11.1 23.7,21.8 
				25.7,21.8 25.7,13.1 29,13.1 29,18.2 36.2,18.2 36.3,13 39.6,13 39.6,18.3 46.6,18.4 46.6,13.1 49.9,13.1 49.9,21.8 51.9,21.8 
				51.9,13.1 55.1,13.1 55.1,21.8 57.1,21.8 57.1,11.1 			"/>
			<g class="st8">
				<g class="st9">
					<g>
						<g>
							<path class="st10" d="M34.1,38.6h-2.5c-0.2,0-0.4-0.2-0.4-0.4s0.2-0.4,0.4-0.4h2.5c0.2,0,0.4,0.2,0.4,0.4
								S34.3,38.6,34.1,38.6z"/>
							<path class="st10" d="M34.1,42.1h-2.5c-0.2,0-0.4-0.2-0.4-0.4s0.2-0.4,0.4-0.4h2.5c0.2,0,0.4,0.2,0.4,0.4
								S34.3,42.1,34.1,42.1z"/>
							<path class="st10" d="M34.1,35.2h-2.5c-0.2,0-0.4-0.2-0.4-0.4s0.2-0.4,0.4-0.4h2.5c0.2,0,0.4,0.2,0.4,0.4
								S34.3,35.2,34.1,35.2z"/>
						</g>
					</g>
					<g>
						<g>
							<path class="st10" d="M48.9,38.8h-2.5c-0.2,0-0.4-0.2-0.4-0.4s0.2-0.4,0.4-0.4h2.5c0.2,0,0.4,0.2,0.4,0.4
								S49.1,38.8,48.9,38.8z"/>
							<path class="st10" d="M48.9,42.2h-2.5c-0.2,0-0.4-0.2-0.4-0.4s0.2-0.4,0.4-0.4h2.5c0.2,0,0.4,0.2,0.4,0.4
								S49.1,42.2,48.9,42.2z"/>
							<path class="st10" d="M48.9,35.3h-2.5c-0.2,0-0.4-0.2-0.4-0.4s0.2-0.4,0.4-0.4h2.5c0.2,0,0.4,0.2,0.4,0.4
								S49.1,35.3,48.9,35.3z"/>
						</g>
					</g>
					<g>
						<g>
							<path class="st10" d="M40.3,32.3c-0.2,0-0.4-0.2-0.4-0.4l0-2.5c0-0.2,0.2-0.4,0.4-0.4l0,0c0.2,0,0.4,0.2,0.4,0.4l0,2.5
								C40.6,32.2,40.5,32.3,40.3,32.3L40.3,32.3z"/>
							<path class="st10" d="M36.8,32.3c-0.2,0-0.4-0.2-0.4-0.4l0-2.5c0-0.2,0.2-0.4,0.4-0.4l0,0c0.2,0,0.4,0.2,0.4,0.4l0,2.5
								C37.2,32.2,37,32.3,36.8,32.3L36.8,32.3z"/>
							<path class="st10" d="M43.7,32.3c-0.2,0-0.4-0.2-0.4-0.4l0-2.5c0-0.2,0.2-0.4,0.4-0.4l0,0c0.2,0,0.4,0.2,0.4,0.4l0,2.5
								C44.1,32.1,43.9,32.3,43.7,32.3L43.7,32.3z"/>
						</g>
					</g>
					<g>
						<g>
							<path class="st10" d="M40.1,47.2c-0.2,0-0.4-0.2-0.4-0.4l0-2.5c0-0.2,0.2-0.4,0.4-0.4l0,0c0.2,0,0.4,0.2,0.4,0.4l0,2.5
								C40.5,47,40.3,47.2,40.1,47.2L40.1,47.2z"/>
							<path class="st10" d="M36.7,47.2c-0.2,0-0.4-0.2-0.4-0.4l0-2.5c0-0.2,0.2-0.4,0.4-0.4l0,0c0.2,0,0.4,0.2,0.4,0.4l0,2.5
								C37,47,36.9,47.2,36.7,47.2L36.7,47.2z"/>
							<path class="st10" d="M43.6,47.2c-0.2,0-0.4-0.2-0.4-0.4l0-2.5c0-0.2,0.2-0.4,0.4-0.4l0,0c0.2,0,0.4,0.2,0.4,0.4l0,2.5
								C43.9,47,43.8,47.2,43.6,47.2L43.6,47.2z"/>
						</g>
					</g>
					<g>
						<g>
							<rect x="33.4" y="31.2" class="st5" width="13.9" height="13.9"/>
							<path class="st10" d="M47.2,45.4H33.4c-0.2,0-0.3-0.1-0.3-0.3V31.2c0-0.2,0.1-0.3,0.3-0.3h13.9c0.2,0,0.3,0.1,0.3,0.3v13.9
								C47.5,45.3,47.4,45.4,47.2,45.4z M33.7,44.8h13.3V31.5H33.7V44.8z"/>
						</g>
					</g>
				</g>
			</g>
			<g>
				<g>
					<g id="XMLID_00000040566264620169778940000008032409664974725050_">
						<g id="XMLID_00000007400781403950634300000002212393435950967436_">
							<g id="XMLID_00000176004755694728224200000016865398662623604925_">
							</g>
						</g>
					</g>
				</g>
			</g>
		</g>
		<g>
			<g>
				<path class="st5" d="M27.7,62.1v1.7h-4.9v2h4.5v1.6h-4.5v2.3h5v1.7h-7.1v-9.3H27.7z"/>
				<path class="st5" d="M30.8,69.1c0.1,0.2,0.3,0.4,0.5,0.5c0.2,0.1,0.4,0.2,0.7,0.3c0.3,0.1,0.5,0.1,0.8,0.1c0.2,0,0.4,0,0.6,0
					c0.2,0,0.4-0.1,0.6-0.2c0.2-0.1,0.3-0.2,0.5-0.4s0.2-0.3,0.2-0.6c0-0.3-0.1-0.5-0.2-0.6c-0.2-0.2-0.4-0.3-0.6-0.4
					c-0.3-0.1-0.6-0.2-0.9-0.3c-0.3-0.1-0.7-0.2-1-0.3c-0.3-0.1-0.7-0.2-1-0.3c-0.3-0.1-0.6-0.3-0.9-0.5c-0.3-0.2-0.5-0.5-0.6-0.8
					C29,65.5,29,65.1,29,64.7c0-0.5,0.1-0.9,0.3-1.2s0.5-0.6,0.8-0.9c0.3-0.2,0.7-0.4,1.1-0.5c0.4-0.1,0.8-0.2,1.3-0.2
					c0.5,0,1,0.1,1.4,0.2s0.8,0.3,1.2,0.5c0.3,0.2,0.6,0.6,0.8,0.9c0.2,0.4,0.3,0.8,0.3,1.4h-2c0-0.3-0.1-0.5-0.2-0.7
					c-0.1-0.2-0.2-0.3-0.4-0.4c-0.2-0.1-0.4-0.2-0.6-0.2c-0.2,0-0.4-0.1-0.7-0.1c-0.2,0-0.3,0-0.5,0.1c-0.2,0-0.3,0.1-0.5,0.2
					c-0.1,0.1-0.2,0.2-0.3,0.3C31,64.2,31,64.3,31,64.5c0,0.2,0,0.3,0.1,0.4c0.1,0.1,0.2,0.2,0.4,0.3s0.5,0.2,0.9,0.3
					c0.4,0.1,0.8,0.2,1.4,0.4c0.2,0,0.4,0.1,0.7,0.2c0.3,0.1,0.6,0.2,0.9,0.4c0.3,0.2,0.6,0.5,0.8,0.8s0.3,0.8,0.3,1.3
					c0,0.4-0.1,0.8-0.2,1.2s-0.4,0.7-0.7,0.9c-0.3,0.3-0.7,0.5-1.2,0.6s-1,0.2-1.7,0.2c-0.5,0-1-0.1-1.5-0.2
					c-0.5-0.1-0.9-0.3-1.3-0.6s-0.7-0.6-0.9-1c-0.2-0.4-0.3-0.9-0.3-1.5h2C30.6,68.7,30.7,68.9,30.8,69.1z"/>
				<path class="st5" d="M41.9,62.1c0.6,0,1.1,0.1,1.5,0.3c0.4,0.2,0.7,0.4,1,0.7c0.3,0.3,0.4,0.6,0.6,1s0.2,0.7,0.2,1.1
					c0,0.4-0.1,0.7-0.2,1.1c-0.1,0.4-0.3,0.7-0.6,1c-0.3,0.3-0.6,0.5-1,0.7c-0.4,0.2-0.9,0.3-1.5,0.3h-2.2v3.3h-2.1v-9.3H41.9z
					 M41.4,66.5c0.2,0,0.5,0,0.7-0.1c0.2,0,0.4-0.1,0.6-0.2c0.2-0.1,0.3-0.2,0.4-0.4s0.2-0.4,0.2-0.7s0-0.5-0.2-0.7
					c-0.1-0.2-0.2-0.3-0.4-0.4c-0.2-0.1-0.4-0.2-0.6-0.2c-0.2,0-0.4-0.1-0.7-0.1h-1.6v2.8H41.4z"/>
				<path class="st5" d="M49.2,66c0.2,0,0.4-0.1,0.6-0.2s0.4-0.2,0.5-0.4c0.1-0.2,0.2-0.4,0.2-0.6c0-0.4-0.1-0.7-0.4-0.9
					c-0.3-0.2-0.6-0.3-0.9-0.3c-0.5,0-0.8,0.2-1.1,0.5s-0.4,0.7-0.3,1.2H46c0-0.5,0.1-0.9,0.3-1.3c0.2-0.4,0.4-0.7,0.6-1
					c0.3-0.3,0.6-0.5,1-0.6c0.4-0.2,0.8-0.2,1.3-0.2c0.4,0,0.7,0.1,1.1,0.2c0.4,0.1,0.7,0.3,1,0.5c0.3,0.2,0.5,0.5,0.7,0.8
					c0.2,0.3,0.3,0.7,0.3,1.1c0,0.4-0.1,0.8-0.3,1.2c-0.2,0.3-0.5,0.6-1,0.7v0c0.5,0.1,0.9,0.4,1.2,0.7c0.3,0.4,0.4,0.8,0.4,1.3
					c0,0.5-0.1,0.9-0.3,1.3s-0.4,0.7-0.8,0.9c-0.3,0.3-0.7,0.4-1.1,0.6s-0.8,0.2-1.3,0.2c-0.5,0-1-0.1-1.4-0.2
					c-0.4-0.1-0.8-0.4-1.1-0.6c-0.3-0.3-0.5-0.6-0.7-1c-0.2-0.4-0.2-0.9-0.2-1.4h1.8c0,0.2,0,0.5,0.1,0.7c0.1,0.2,0.2,0.4,0.3,0.6
					c0.1,0.2,0.3,0.3,0.5,0.4c0.2,0.1,0.4,0.1,0.7,0.1c0.4,0,0.8-0.1,1.1-0.4c0.3-0.3,0.4-0.6,0.4-1.1c0-0.3-0.1-0.6-0.2-0.8
					c-0.1-0.2-0.3-0.3-0.5-0.4s-0.4-0.1-0.7-0.1c-0.2,0-0.5,0-0.7,0V66C48.7,66,49,66,49.2,66z"/>
				<path class="st5" d="M53.5,64.3c0.1-0.4,0.3-0.8,0.6-1.2s0.6-0.6,1.1-0.8c0.4-0.2,0.9-0.3,1.5-0.3c0.4,0,0.8,0.1,1.2,0.2
					s0.7,0.3,1,0.6c0.3,0.2,0.5,0.5,0.7,0.9s0.3,0.8,0.3,1.2c0,0.5-0.1,0.9-0.2,1.2c-0.1,0.3-0.3,0.6-0.6,0.9
					c-0.2,0.3-0.5,0.5-0.8,0.7c-0.3,0.2-0.6,0.4-0.9,0.6c-0.3,0.2-0.6,0.4-0.9,0.7s-0.6,0.5-0.8,0.8h4.3v1.6h-6.7
					c0-0.5,0.1-1,0.2-1.4s0.4-0.7,0.6-1.1s0.6-0.6,0.9-0.9c0.4-0.3,0.7-0.5,1.1-0.8c0.2-0.1,0.4-0.3,0.6-0.4
					c0.2-0.1,0.4-0.3,0.6-0.5c0.2-0.2,0.3-0.4,0.5-0.6c0.1-0.2,0.2-0.5,0.2-0.7c0-0.4-0.1-0.8-0.4-1c-0.3-0.2-0.6-0.4-1-0.4
					c-0.3,0-0.5,0.1-0.7,0.2c-0.2,0.1-0.3,0.3-0.5,0.5s-0.2,0.4-0.2,0.7c0,0.2-0.1,0.5-0.1,0.7h-1.8C53.3,65.3,53.4,64.8,53.5,64.3z
					"/>
			</g>
		</g>
		<g>
			<g>
				<g>
					<g>
						
							<rect x="39.4" y="45.8" transform="matrix(1 -1.015916e-03 1.015916e-03 1 -4.793441e-02 4.083873e-02)" class="st12" width="1.6" height="2.9"/>
						
							<rect x="35.4" y="45.8" transform="matrix(1 -1.016087e-03 1.016087e-03 1 -4.794781e-02 3.679817e-02)" class="st12" width="1.6" height="2.9"/>
						
							<rect x="43.4" y="45.8" transform="matrix(1 -1.015916e-03 1.015916e-03 1 -4.792888e-02 4.488552e-02)" class="st12" width="1.6" height="2.9"/>
					</g>
					<g>
						<g>
							<rect x="30.3" y="38" class="st12" width="2.9" height="1.6"/>
							<rect x="30.3" y="42" class="st12" width="2.9" height="1.6"/>
							<rect x="30.3" y="34" class="st12" width="2.9" height="1.6"/>
						</g>
					</g>
					<g>
						<g>
							<rect x="47.5" y="38.2" class="st12" width="2.9" height="1.6"/>
							<rect x="47.5" y="42.1" class="st12" width="2.9" height="1.6"/>
							<rect x="47.5" y="34.2" class="st12" width="2.9" height="1.6"/>
						</g>
					</g>
					<g>
						<g>
							
								<rect x="39.5" y="28.6" transform="matrix(1 -1.016087e-03 1.016087e-03 1 -3.051739e-02 4.099556e-02)" class="st12" width="1.6" height="2.9"/>
							
								<rect x="35.5" y="28.6" transform="matrix(1 -1.016087e-03 1.016087e-03 1 -3.052292e-02 3.694808e-02)" class="st12" width="1.6" height="2.9"/>
							
								<rect x="43.5" y="28.6" transform="matrix(1 -1.015916e-03 1.015916e-03 1 -3.050694e-02 4.503541e-02)" class="st12" width="1.6" height="2.9"/>
						</g>
					</g>
				</g>
				<g>
					<g>
						<rect x="32.4" y="30.7" class="st13" width="16" height="16"/>
						<path class="st5" d="M48.4,47h-16c-0.2,0-0.3-0.1-0.3-0.3v-16c0-0.2,0.1-0.3,0.3-0.3h16c0.2,0,0.3,0.1,0.3,0.3v16
							C48.7,46.9,48.6,47,48.4,47z M32.7,46.4h15.4V31H32.7V46.4z"/>
					</g>
				</g>
			</g>
			<g>
				<path class="st5" d="M38.7,41c0,0.4-0.3,0.7-0.7,0.7c-0.4,0-0.7-0.3-0.7-0.7c0-0.4,0.3-0.7,0.7-0.7C38.4,40.3,38.7,40.6,38.7,41
					"/>
				<path class="st5" d="M44.6,40.3c-0.4-3.1-2.9-5.5-5.9-5.9c-0.4,0.2-0.7,0.4-1,0.7v0.7c3.1,0,5.5,2.5,5.5,5.5h0.7
					C44.2,40.9,44.4,40.6,44.6,40.3"/>
				<path class="st5" d="M42.4,35.4c1.1,0.9,1.9,2,2.4,3.3l0.3-0.1c0-0.1,0-0.3,0-0.4"/>
				<path class="st5" d="M45.1,38.2c0-2.4-2-4.4-4.4-4.4c-0.2,0-0.3,0-0.5,0l-0.1,0.3c0.8,0.3,1.6,0.7,2.3,1.3"/>
				<path class="st5" d="M40.8,43.4c-1.4,0-2.7-0.5-3.7-1.5c-1-1-1.5-2.3-1.5-3.7c0-1.4,0.5-2.7,1.5-3.7l0.3,0.3
					c-0.9,0.9-1.4,2.1-1.4,3.4s0.5,2.5,1.4,3.4c0.9,0.9,2.1,1.4,3.4,1.4c1.3,0,2.5-0.5,3.4-1.4l0.3,0.3
					C43.5,42.9,42.2,43.4,40.8,43.4"/>
				<path class="st5" d="M40.7,41.5c0.1-1.1-0.4-2.1-1.2-2.7c-0.4-0.3-0.9-0.5-1.5-0.6c-0.1,0-0.3-0.1-0.2-0.3
					c0-0.2,0.2-0.3,0.3-0.2c0.6,0.1,1.2,0.3,1.7,0.6c1,0.7,1.7,2,1.5,3.3c0,0.2-0.1,0.4-0.1,0.6l0.8,0.2c0.2-0.1,0.5-0.2,0.7-0.3
					c0.1-0.3,0.1-0.6,0.1-0.9c0-2.5-1.9-4.6-4.3-4.9c-0.3,0-0.6,0-0.8,0c-0.3,0.1-0.6,0.3-0.9,0.5c-0.3,0.3-0.4,0.7-0.4,1.1
					c0,0.8,0.5,1.4,1.2,1.6c0.1,0,0.3,0.1,0.4,0.1h0c0.8,0.1,1.3,0.8,1.3,1.6c0,0.3-0.1,0.6-0.3,0.9l0.5,0.4
					c0.3,0.1,0.5,0.1,0.8,0.1C40.6,42.3,40.7,41.9,40.7,41.5"/>
			</g>
		</g>
	</g>
</g>
</svg>
